<svg width="197" height="262" viewBox="0 0 197 262" fill="none" xmlns="http://www.w3.org/2000/svg">
<rect width="197" height="262" fill="#10A37F"/>
<ellipse cx="98.5" cy="98.25" rx="98.5" ry="98.25" fill="#10A37F"/>
<path d="M155.54 86.3569C157.029 81.946 157.543 77.2732 157.05 72.6508C156.557 68.0284 155.067 63.5627 152.679 59.5522C145.417 47.1142 130.82 40.7163 116.565 43.7227C112.618 39.4028 107.585 36.1809 101.972 34.3804C96.359 32.5799 90.3632 32.2643 84.5869 33.4652C78.8105 34.6662 73.457 37.3414 69.0641 41.2223C64.6711 45.1031 61.3933 50.053 59.5598 55.5747C54.9312 56.5085 50.5584 58.4037 46.7339 61.1335C42.9093 63.8633 39.7209 67.3649 37.3819 71.4042C30.0406 83.8225 31.7074 99.4865 41.503 110.14C40.0088 114.549 39.4887 119.221 39.9775 123.843C40.4663 128.466 41.9528 132.933 44.3374 136.944C51.609 149.387 66.2147 155.784 80.4777 152.774C83.6136 156.248 87.4668 159.024 91.7799 160.917C96.0931 162.81 100.767 163.775 105.49 163.749C120.101 163.762 133.046 154.481 137.509 140.792C142.137 139.857 146.509 137.961 150.333 135.231C154.158 132.502 157.346 129.001 159.687 124.963C166.939 112.567 165.266 96.9873 155.54 86.3569ZM105.49 155.176C99.6573 155.185 94.0079 153.174 89.532 149.495L90.3195 149.056L116.827 134.001C117.487 133.62 118.035 133.077 118.417 132.425C118.799 131.773 119.002 131.035 119.006 130.282V93.51L130.213 99.8882C130.325 99.9443 130.403 100.05 130.423 100.172V130.644C130.394 144.181 119.248 155.148 105.49 155.176ZM51.8963 132.658C48.9714 127.689 47.9212 121.864 48.9305 116.208L49.7175 116.673L76.252 131.729C76.9085 132.108 77.6559 132.307 78.4172 132.307C79.1784 132.307 79.9258 132.108 80.5824 131.729L112.996 113.342V126.073C112.993 126.139 112.974 126.203 112.943 126.262C112.911 126.32 112.866 126.37 112.812 126.409L85.9629 141.645C74.0316 148.408 58.7882 144.386 51.8963 132.658ZM44.9146 75.8461C47.8598 70.845 52.5085 67.0305 58.0377 65.0779V96.0656C58.0277 96.8143 58.2221 97.552 58.6007 98.2015C58.9792 98.8511 59.528 99.3888 60.1898 99.7585L92.4455 118.067L81.2385 124.446C81.1779 124.477 81.1104 124.494 81.0418 124.494C80.9732 124.494 80.9056 124.477 80.845 124.446L54.0484 109.237C42.1407 102.445 38.057 87.4588 44.9146 75.7174V75.8461ZM136.984 96.8924L104.623 78.4028L115.804 72.0503C115.865 72.0186 115.933 72.002 116.001 72.002C116.07 72.002 116.138 72.0186 116.198 72.0503L142.995 87.2862C147.092 89.6123 150.432 93.0371 152.625 97.1609C154.819 101.285 155.774 105.937 155.381 110.575C154.987 115.213 153.261 119.646 150.403 123.355C147.545 127.064 143.674 129.896 139.242 131.522V100.533C139.219 99.786 138.998 99.0574 138.602 98.4191C138.207 97.7808 137.649 97.2547 136.984 96.8924ZM148.139 80.3916L147.351 79.9262L120.869 64.7423C120.209 64.3609 119.457 64.1599 118.691 64.1599C117.925 64.1599 117.173 64.3609 116.513 64.7423L84.1253 83.1289V70.3982C84.1184 70.3335 84.1294 70.2681 84.1571 70.209C84.1848 70.1499 84.2283 70.0993 84.2828 70.0625L111.079 54.8523C115.186 52.5245 119.882 51.3953 124.617 51.5968C129.352 51.7984 133.931 53.3223 137.819 55.9904C141.706 58.6585 144.741 62.3604 146.568 66.6633C148.396 70.9661 148.94 75.692 148.138 80.2881V80.3916H148.139ZM78.0106 102.961L66.8037 96.6083C66.7476 96.5749 66.6998 96.5299 66.6634 96.4763C66.6271 96.4228 66.6031 96.362 66.5933 96.2983V65.9047C66.5995 61.2421 67.9547 56.6776 70.5003 52.7449C73.0459 48.8121 76.6768 45.6736 80.9685 43.6964C85.2601 41.7192 90.0352 40.9849 94.7353 41.5794C99.4355 42.1739 103.867 44.0727 107.51 47.0537L106.723 47.4928L80.2151 62.5475C79.5554 62.9283 79.0077 63.4713 78.6258 64.1232C78.2439 64.7752 78.0409 65.5137 78.0368 66.2662L78.0106 102.961V102.961ZM84.0991 90.0488L98.5345 81.863L112.996 90.0493V106.421L98.5869 114.607L84.1258 106.421L84.0991 90.0488Z" fill="white"/>
<path d="M98.4921 76.6647C97.9147 76.6647 97.3358 77.1221 96.8375 77.417L81.1633 86.7879C80.1509 87.3941 79.5182 88.5409 79.5182 89.7532V106.759C79.5182 107.987 80.1509 109.118 81.1633 109.724L85.276 112.181C87.2691 113.197 87.9809 113.197 88.8826 113.197C91.8406 113.197 93.5331 111.346 93.5331 108.135V90.5887C93.5331 90.4627 93.4848 90.3419 93.3987 90.2528C93.3127 90.1637 93.196 90.1136 93.0744 90.1136H91.0971C91.0366 90.1128 90.9766 90.1244 90.9206 90.148C90.8645 90.1716 90.8136 90.2065 90.7708 90.2508C90.7281 90.2951 90.6943 90.3479 90.6716 90.4059C90.6488 90.4639 90.6375 90.5261 90.6384 90.5887V108.118C90.6384 109.56 89.1989 110.969 86.8737 109.773L82.5711 107.201C82.494 107.158 82.4296 107.094 82.385 107.016C82.3404 106.938 82.3172 106.849 82.318 106.759V89.7696C82.318 89.573 82.4129 89.4092 82.5711 89.3109L98.2469 79.9399C98.3203 79.8919 98.4053 79.8664 98.4921 79.8664C98.5789 79.8664 98.6639 79.8919 98.7373 79.9399L114.413 89.3109C114.571 89.4092 114.666 89.573 114.666 89.7532V106.759C114.666 106.939 114.571 107.119 114.429 107.201L98.7373 116.588C98.6614 116.629 98.5774 116.65 98.4921 116.65C98.4068 116.65 98.3228 116.629 98.2469 116.588L94.2133 114.114C94.1591 114.073 94.095 114.048 94.0279 114.043C93.9609 114.037 93.8937 114.05 93.8336 114.082C92.7106 114.737 92.5049 114.819 91.4609 115.196C91.2078 115.278 90.8124 115.441 91.6033 115.9L96.8391 119.111C97.3453 119.406 97.9147 119.57 98.4842 119.57C99.0695 119.57 99.6389 119.406 100.145 119.111L115.837 109.724C116.849 109.118 117.482 107.987 117.482 106.759V89.7696C117.482 88.5409 116.849 87.4105 115.837 86.8043L100.145 77.417C99.6452 77.1221 99.071 76.6647 98.4921 76.6647ZM102.708 90.0907C98.2311 90.0907 95.5578 92.0566 95.5578 95.3332C95.5578 98.8883 98.2153 99.868 102.518 100.31C107.659 100.835 108.054 101.624 108.054 102.673C108.054 104.475 106.646 105.245 103.34 105.245C99.1802 105.245 98.2627 104.162 97.9622 102.032C97.9469 101.922 97.8935 101.822 97.8121 101.749C97.7306 101.677 97.6266 101.638 97.5193 101.639H95.4787C95.3613 101.639 95.2486 101.687 95.1656 101.773C95.0825 101.859 95.0358 101.976 95.0358 102.098C95.0358 104.834 96.4753 108.094 103.34 108.094C108.307 108.094 111.155 106.062 111.155 102.524C111.155 99.0177 108.861 98.0839 104.052 97.4122C99.1644 96.7569 98.674 96.4128 98.674 95.2333C98.674 94.2503 99.1011 92.9561 102.708 92.9561C105.919 92.9561 107.121 93.6769 107.611 95.9214C107.659 96.1343 107.833 96.2982 108.054 96.2982H110.095C110.221 96.2982 110.332 96.2326 110.427 96.1343C110.47 96.0865 110.502 96.0293 110.521 95.967C110.54 95.9047 110.546 95.8387 110.538 95.7739C110.221 91.9076 107.738 90.0907 102.708 90.0907Z" fill="white" stroke="#10A37F" stroke-width="0.1"/>
</svg>
