<svg width="37" height="25" viewBox="0 0 37 25" fill="none" xmlns="http://www.w3.org/2000/svg">
<g clip-path="url(#clip0_298_669)">
<path d="M10.4629 9.05849C10.4629 9.57108 10.5121 9.9866 10.5978 10.2913C10.7066 10.6342 10.8376 10.9675 10.9897 11.2886C11.051 11.3993 11.0755 11.5101 11.0755 11.6072C11.0755 11.7456 11.002 11.8841 10.8428 12.0227L10.071 12.6044C9.96068 12.6876 9.8504 12.7291 9.75227 12.7291C9.62985 12.7291 9.50729 12.6598 9.38473 12.5351C9.21967 12.3346 9.072 12.1166 8.94376 11.8841C8.8212 11.6489 8.69864 11.3855 8.56393 11.067C7.60829 12.3412 6.40753 12.9784 4.96192 12.9784C3.93286 12.9784 3.11192 12.6459 2.51154 11.9812C1.9113 11.3162 1.60504 10.4297 1.60504 9.32173C1.60504 8.14444 1.97258 7.18872 2.71996 6.46846C3.46718 5.7482 4.45968 5.38807 5.72158 5.38807C6.13812 5.38807 6.56694 5.42957 7.02019 5.49885C7.47359 5.56813 7.93912 5.67892 8.42923 5.80359V4.79248C8.42923 3.7397 8.2331 3.00572 7.85327 2.5763C7.4613 2.14689 6.79964 1.93905 5.85628 1.93905C5.42746 1.93905 4.98649 1.9946 4.5331 2.11928C4.07985 2.24379 3.63874 2.39624 3.20992 2.59019C3.01393 2.68709 2.86694 2.74248 2.78109 2.77026C2.69539 2.79804 2.6341 2.81176 2.58511 2.81176C2.41355 2.81176 2.32784 2.6732 2.32784 2.38235V1.70359C2.32784 1.48202 2.35241 1.31585 2.41355 1.21895C2.47483 1.12189 2.58511 1.025 2.75667 0.928101C3.18549 0.678755 3.70002 0.470912 4.30026 0.304735C4.90079 0.12467 5.53788 0.0416633 6.21169 0.0416633C7.66972 0.0416633 8.73564 0.415519 9.42173 1.16356C10.0955 1.91143 10.4386 3.04722 10.4386 4.57091V9.05849H10.4632H10.4629ZM5.48874 11.1639C5.89314 11.1639 6.30968 11.0809 6.75064 10.9145C7.19175 10.7484 7.58387 10.4436 7.91455 10.0281C8.11068 9.76503 8.25767 9.47418 8.33109 9.14166C8.40466 8.80931 8.45366 8.40751 8.45366 7.9366V7.3549C8.08211 7.25266 7.70579 7.17405 7.32646 7.11944C6.94449 7.06459 6.55986 7.03682 6.17483 7.03627C5.35389 7.03627 4.75365 7.21634 4.3494 7.59036C3.945 7.96438 3.74902 8.49068 3.74902 9.18317C3.74902 9.83415 3.89601 10.319 4.20227 10.6515C4.49639 10.9977 4.92521 11.1639 5.48874 11.1639ZM15.3268 12.6598C15.1063 12.6598 14.9593 12.6183 14.8613 12.5212C14.7633 12.4382 14.6775 12.2443 14.604 11.9812L11.725 1.27434C11.6513 0.997219 11.6146 0.817153 11.6146 0.720258C11.6146 0.498689 11.7125 0.373853 11.9087 0.373853H13.1093C13.342 0.373853 13.5014 0.415519 13.5871 0.512415C13.6851 0.595585 13.7587 0.789539 13.8321 1.05261L15.8904 10.2221L17.8016 1.05261C17.8629 0.77565 17.9365 0.595585 18.0343 0.512415C18.1325 0.429408 18.304 0.374016 18.5246 0.374016H19.5047C19.7374 0.374016 19.8968 0.415519 19.9946 0.512415C20.0928 0.595585 20.1785 0.789539 20.2275 1.05261L22.1633 10.3328L24.2827 1.05261C24.3561 0.77565 24.442 0.595585 24.5277 0.512415C24.6257 0.429408 24.785 0.374016 25.0055 0.374016H26.1449C26.341 0.374016 26.4513 0.484801 26.4513 0.720258C26.4513 0.789539 26.439 0.85882 26.4267 0.941827C26.4144 1.025 26.39 1.13578 26.341 1.28823L23.3882 11.9949C23.3148 12.2721 23.2291 12.4521 23.1309 12.5351C23.033 12.6183 22.8737 12.6737 22.6656 12.6737H21.6119C21.3791 12.6737 21.2198 12.6322 21.1217 12.5351C21.0237 12.4382 20.938 12.2582 20.889 11.9812L18.9898 3.04722L17.1031 11.9672C17.042 12.2443 16.9684 12.4243 16.8704 12.5212C16.7724 12.6183 16.6009 12.6598 16.3805 12.6598H15.3267H15.3268ZM31.0702 13.0338C30.4331 13.0338 29.796 12.9507 29.1835 12.7845C28.5708 12.6183 28.0931 12.4381 27.7746 12.2306C27.5785 12.1057 27.4436 11.9673 27.3948 11.8426C27.3471 11.7204 27.322 11.5884 27.3212 11.4547V10.7484C27.3212 10.4575 27.4192 10.319 27.603 10.319C27.6781 10.3193 27.7525 10.3333 27.8236 10.3606C27.897 10.3884 28.0073 10.4436 28.1299 10.499C28.5626 10.7142 29.0143 10.8767 29.4775 10.9838C29.9574 11.0939 30.4458 11.1496 30.9355 11.15C31.7073 11.15 32.3077 10.9977 32.7242 10.693C33.1407 10.3882 33.3613 9.9451 33.3613 9.37712C33.3613 8.98938 33.251 8.67075 33.0305 8.40751C32.8099 8.14444 32.3934 7.90898 31.7931 7.68725L30.0166 7.06405C29.1222 6.74542 28.4607 6.27451 28.0563 5.65114C27.652 5.04166 27.4438 4.36307 27.4438 3.64281C27.4438 3.06111 27.554 2.54853 27.7746 2.10523C27.995 1.66209 28.2891 1.27434 28.6567 0.969604C29.0242 0.650977 29.4407 0.415519 29.9309 0.249343C30.4208 0.0831666 30.9353 0.0138855 31.4744 0.0138855C31.744 0.0138855 32.0258 0.0277744 32.2954 0.0692777C32.5772 0.110781 32.8345 0.166173 33.0918 0.221565C33.3367 0.290846 33.5696 0.360127 33.7901 0.443297C34.0107 0.526304 34.1821 0.609474 34.3047 0.69248C34.4762 0.803428 34.5986 0.914212 34.6722 1.03889C34.7458 1.14967 34.7825 1.30196 34.7825 1.49591V2.14689C34.7825 2.43774 34.6845 2.59019 34.5006 2.59019C34.4027 2.59019 34.2434 2.53464 34.0353 2.42385C33.3367 2.06372 32.5527 1.88366 31.6829 1.88366C30.9845 1.88366 30.4331 2.00833 30.0533 2.27157C29.6736 2.53464 29.4775 2.93643 29.4775 3.50425C29.4775 3.89215 29.6 4.22451 29.845 4.48774C30.0901 4.75081 30.5434 5.01405 31.1928 5.24951L32.9325 5.87287C33.8146 6.1915 34.4516 6.63464 34.8315 7.20245C35.2113 7.77042 35.3951 8.4214 35.3951 9.14166C35.3951 9.73725 35.2847 10.2774 35.0765 10.7484C34.856 11.2193 34.5619 11.6348 34.1821 11.9673C33.8023 12.3136 33.349 12.5629 32.8222 12.743C32.2708 12.9369 31.695 13.0338 31.0702 13.0338Z" fill="#FF9900"/>
<path d="M33.3857 19.7654C29.355 23.1312 23.4986 24.918 18.4633 24.918C11.4063 24.918 5.04777 21.9677 0.245139 17.0644C-0.134689 16.6766 0.208283 16.1503 0.661533 16.4549C5.85628 19.8624 12.2639 21.9262 18.8921 21.9262C23.3639 21.9262 28.2768 20.8735 32.7978 18.7128C33.4716 18.3663 34.0474 19.2114 33.3857 19.7654ZM35.0643 17.6046C34.5498 16.8567 31.6583 17.2445 30.3474 17.4245C29.9553 17.4801 29.894 17.0922 30.2494 16.8013C32.5526 14.9729 36.3385 15.4994 36.7795 16.1087C37.2206 16.732 36.6569 21.0119 34.5006 23.0619C34.1699 23.3806 33.8514 23.2144 33.9984 22.7989C34.4883 21.4275 35.5788 18.3387 35.0643 17.6046Z" fill="#FF9900"/>
</g>
<defs>
<clipPath id="clip0_298_669">
<rect width="37" height="25" fill="white"/>
</clipPath>
</defs>
</svg>
