<svg width="85" height="23" viewBox="0 0 85 23" fill="none" xmlns="http://www.w3.org/2000/svg">
<path d="M20.0198 14.2297L16.3993 5.13636L16.3914 5.11129H13.5746V5.72243H14.029C14.1671 5.72243 14.2969 5.78123 14.3944 5.88153C14.4918 5.982 14.5406 6.11602 14.5406 6.25852L14.4593 15.4101C14.4593 15.6949 14.2322 15.9292 13.956 15.9377L13.4934 15.946V16.5489H16.2372V15.946L15.953 15.9377C15.677 15.9292 15.4497 15.6949 15.4497 15.4103V6.78562L19.3948 16.5487C19.4516 16.691 19.5814 16.7832 19.7277 16.7832C19.8737 16.7832 20.0035 16.691 20.0604 16.5487L23.9164 7.00334L23.9732 15.4101C23.9732 15.703 23.7458 15.9375 23.4616 15.9458H23.1694V16.5487H26.384V15.9458H25.9456C25.6698 15.9458 25.4423 15.703 25.4344 15.4184L25.4098 6.26648C25.4097 6.12746 25.4621 5.99385 25.5561 5.89388C25.65 5.7939 25.778 5.7354 25.9131 5.73073L26.384 5.72226V5.11111H23.6402L20.0197 14.2295L20.0198 14.2297ZM45.2634 15.7867C45.1739 15.6946 45.125 15.5688 45.125 15.4177V10.9222C45.125 10.0667 44.881 9.39551 44.3926 8.91753C43.9124 8.43937 43.2451 8.19623 42.415 8.19623C41.251 8.19623 40.3315 8.68268 39.6884 9.63883C39.6804 9.6556 39.656 9.66408 39.6316 9.66408C39.607 9.66408 39.5909 9.64713 39.5909 9.62205L39.2897 8.4226H38.7851L37.491 9.18592V9.60528H37.8247C37.9794 9.60528 38.1095 9.64713 38.1992 9.73117C38.2886 9.81505 38.3374 9.94077 38.3374 10.1168V15.4094C38.3374 15.5604 38.2886 15.6863 38.1992 15.7786C38.1095 15.8708 37.9875 15.9211 37.841 15.9211H37.5154V16.5333H40.4941V15.9211H40.1687C40.0221 15.9211 39.9 15.8708 39.8105 15.7786C39.7211 15.6863 39.6721 15.5604 39.6721 15.4094V11.9034C39.6721 11.4589 39.7698 11.0143 39.9489 10.578C40.1361 10.1504 40.4127 9.78963 40.779 9.51276C41.1452 9.23607 41.5848 9.10187 42.0893 9.10187C42.659 9.10187 43.0904 9.28639 43.3589 9.65543C43.6275 10.0245 43.7659 10.5026 43.7659 11.073V15.4009C43.7659 15.5519 43.7171 15.6776 43.6275 15.77C43.538 15.8623 43.416 15.9125 43.2693 15.9125H42.9439V16.5248H45.9226V15.9126H45.5972C45.4751 15.9294 45.3611 15.8791 45.2634 15.7867ZM72.4778 5.79593C71.6545 5.34509 70.7343 5.11111 69.7413 5.11111H65.8668V5.7207H66.246C66.3913 5.7207 66.5205 5.77915 66.6496 5.91266C66.7707 6.03803 66.8353 6.18001 66.8353 6.33029V15.3141C66.8353 15.4646 66.7709 15.6064 66.6496 15.7318C66.5285 15.857 66.3913 15.9237 66.246 15.9237H65.8666V16.5333H69.7413C70.7343 16.5333 71.6545 16.2995 72.4778 15.8485C73.3012 15.3976 73.9711 14.7296 74.4554 13.8781C74.9399 13.0266 75.1901 11.9995 75.1901 10.8305C75.1901 9.66166 74.9399 8.64291 74.4556 7.78309C73.9632 6.9148 73.301 6.25506 72.4778 5.79593ZM73.6323 10.8139C73.6323 11.8826 73.4466 12.7843 73.0832 13.5108C72.72 14.2371 72.2357 14.7798 71.6384 15.1306C71.041 15.4812 70.379 15.6565 69.6687 15.6565H68.8857C68.7404 15.6565 68.6112 15.5981 68.4821 15.4646C68.361 15.3392 68.2964 15.1974 68.2964 15.0471V6.57239C68.2964 6.42194 68.3529 6.28861 68.4821 6.15493C68.6032 6.02973 68.7404 5.96298 68.8857 5.96298H69.6687C70.379 5.96298 71.0409 6.13816 71.6384 6.48887C72.2357 6.83957 72.72 7.38223 73.0832 8.10872C73.4465 8.84334 73.6323 9.75348 73.6323 10.8139ZM84.349 11.4235C83.9907 10.9976 83.299 10.6386 82.4858 10.4464C83.6088 9.87038 84.1859 9.06054 84.1859 8.01672C84.1859 7.44916 84.0401 6.9397 83.7466 6.50564C83.454 6.07158 83.0387 5.7207 82.5101 5.4786C81.9808 5.23649 81.3623 5.11129 80.6625 5.11129H76.2766V5.7207H76.6264C76.7729 5.7207 76.9032 5.77915 77.0334 5.91266C77.1555 6.03803 77.2206 6.18001 77.2206 6.33029V15.3141C77.2206 15.4646 77.1555 15.6064 77.0334 15.7318C76.9113 15.857 76.7729 15.9237 76.6264 15.9237H76.244V16.5333H81.0047C81.7287 16.5333 82.4039 16.4081 83.0145 16.1575C83.6249 15.9071 84.1131 15.5396 84.4632 15.0554C84.8209 14.5712 85 13.9782 85 13.2936C84.9919 12.559 84.7802 11.9326 84.349 11.4235ZM78.8887 15.4729C78.7666 15.3477 78.7016 15.2057 78.7016 15.0554V11.0225H80.964C81.761 11.0225 82.3714 11.2312 82.7947 11.6485C83.2178 12.0661 83.4295 12.6088 83.4295 13.2768C83.4295 13.6775 83.3313 14.07 83.153 14.4291C82.9657 14.7964 82.6884 15.0886 82.3147 15.3141C81.9481 15.5395 81.4926 15.6565 80.964 15.6565H79.2954C79.1491 15.6565 79.0187 15.5979 78.8886 15.4727L78.8887 15.4729ZM78.7098 10.1626V6.58069C78.7098 6.43041 78.7666 6.29691 78.8968 6.16323C79.0189 6.03803 79.1573 5.97128 79.3038 5.97128H80.378C81.1505 5.97128 81.7206 6.17171 82.079 6.55579C82.4365 6.94817 82.6156 7.44916 82.6156 8.06687C82.6156 8.70154 82.4446 9.21082 82.1113 9.5949C81.7773 9.97051 81.273 10.1626 80.6059 10.1626H78.7098ZM33.9236 8.72851C33.3017 8.37919 32.6072 8.19588 31.8562 8.19588C31.125 8.19588 30.4398 8.36172 29.8376 8.70084L29.789 8.72851C29.1671 9.07801 28.6746 9.58556 28.3112 10.2263C27.9479 10.867 27.7621 11.616 27.7621 12.4479C27.7621 13.2801 27.9478 14.0291 28.3112 14.6698C28.6746 15.3105 29.1671 15.818 29.789 16.1674C30.4108 16.5169 31.1054 16.7 31.8562 16.7C32.5876 16.7 33.2728 16.5343 33.8748 16.1954L33.9236 16.1675C34.5453 15.818 35.038 15.3105 35.4014 14.6698C35.7647 14.0291 35.9505 13.2801 35.9505 12.4479C35.9505 11.616 35.7647 10.867 35.4014 10.2263C35.038 9.58556 34.5455 9.07784 33.9236 8.72851ZM34.5211 12.4479C34.5211 13.4715 34.2789 14.3035 33.7943 14.9027C33.3179 15.5018 32.6639 15.8096 31.8562 15.8096C31.0632 15.8096 30.4181 15.5126 29.9439 14.9345L29.9183 14.9027C29.4336 14.3035 29.1913 13.4715 29.1913 12.4479C29.1913 11.4432 29.4251 10.6228 29.8921 10.0262L29.9183 9.99334C30.3945 9.3943 31.0489 9.08631 31.8562 9.08631C32.6639 9.08631 33.3179 9.39413 33.7943 9.99334C34.2789 10.5925 34.5211 11.4245 34.5211 12.4479ZM62.5424 8.72851C61.9205 8.37919 61.2262 8.19588 60.4751 8.19588C59.744 8.19588 59.0585 8.36172 58.4565 8.70084L58.4077 8.72851C57.786 9.07801 57.2935 9.58556 56.9301 10.2263C56.5667 10.867 56.3809 11.616 56.3809 12.4479C56.3809 13.2801 56.5667 14.0291 56.9301 14.6698C57.2933 15.3105 57.786 15.818 58.4079 16.1674C59.0296 16.5169 59.7241 16.7 60.4751 16.7C61.2063 16.7 61.8918 16.5343 62.4938 16.1954L62.5425 16.1675C63.1643 15.818 63.6568 15.3105 64.0202 14.6698C64.3836 14.0291 64.5693 13.2801 64.5693 12.4479C64.5693 11.616 64.3836 10.867 64.0202 10.2263C63.657 9.58556 63.1562 9.07784 62.5424 8.72851ZM63.14 12.4479C63.14 13.4715 62.8977 14.3035 62.4132 14.9027C61.9367 15.5018 61.2827 15.8096 60.4751 15.8096C59.6819 15.8096 59.0368 15.5126 58.5628 14.9345L58.5371 14.9027C58.0526 14.3035 57.8103 13.4715 57.8103 12.4479C57.8103 11.4349 58.0438 10.6225 58.5108 10.0262L58.5371 9.99334C59.0135 9.3943 59.6676 9.08631 60.4751 9.08631C61.2827 9.08631 61.9367 9.39413 62.4132 9.99334C62.8896 10.5925 63.14 11.4245 63.14 12.4479ZM51.001 8.19605C50.3502 8.19605 49.7566 8.33803 49.2198 8.62233C48.683 8.90646 48.2601 9.29106 47.9592 9.78426C47.66 10.2628 47.5018 10.8203 47.5038 11.3892C47.5038 11.9075 47.6177 12.384 47.8536 12.8104C48.0811 13.2199 48.3902 13.5627 48.7807 13.8468L47.6177 15.4685C47.4714 15.6692 47.4551 15.9367 47.5607 16.1541C47.6745 16.3797 47.8861 16.5134 48.1301 16.5134H48.4636C48.1518 16.7297 47.8997 16.9845 47.7218 17.2847L47.6989 17.3243C47.4875 17.6836 47.3818 18.0599 47.3818 18.4444C47.3818 19.1505 47.6799 19.7357 48.2683 20.1759L48.3008 20.1998C48.9028 20.6429 49.7485 20.8685 50.8138 20.8685C51.5539 20.8685 52.2615 20.7432 52.9041 20.5007C53.536 20.2653 54.0528 19.9193 54.4398 19.4707L54.4734 19.4309C54.8719 18.9626 55.0754 18.3942 55.0754 17.7423C55.0754 17.0568 54.8314 16.5719 54.2622 16.1039C53.7742 15.711 53.0097 15.5021 52.0581 15.5021H48.8051C48.8003 15.5017 48.7958 15.4997 48.7921 15.4966L48.7888 15.4936L48.7873 15.4902C48.7856 15.4848 48.7829 15.4746 48.7888 15.4685L49.6346 14.2983C49.8349 14.3943 50.045 14.4671 50.2609 14.5155C50.456 14.5574 50.6756 14.5741 50.9196 14.5741C51.6027 14.5741 52.2208 14.432 52.7576 14.1479C53.2944 13.8636 53.7254 13.4791 54.0345 12.9858C54.3434 12.501 54.4979 11.9577 54.4979 11.3809C54.4979 10.7624 54.2053 9.63381 53.4082 9.05708C53.4082 9.0519 53.4111 9.04999 53.4134 9.04913L53.4163 9.04861L55.1649 9.24921V8.42173H52.3671C51.9281 8.27958 51.4725 8.19605 51.001 8.19605ZM51.9768 13.429C51.6677 13.596 51.3344 13.688 51.001 13.688C50.4561 13.688 49.9762 13.4874 49.5696 13.0945C49.1629 12.7016 48.9596 12.1249 48.9596 11.3892C48.9596 10.6536 49.1629 10.0767 49.5696 9.68396C49.9762 9.29106 50.456 9.09046 51.001 9.09046C51.3282 9.09046 51.6407 9.16724 51.9381 9.32807L51.9768 9.34951C52.2859 9.51674 52.538 9.77596 52.7413 10.1187C52.9364 10.4615 53.0423 10.8877 53.0423 11.3892C53.0423 11.8992 52.9446 12.3255 52.7413 12.6598C52.5462 13.0025 52.2859 13.2618 51.9768 13.429ZM49.7729 16.5051H51.9768C52.5868 16.5051 52.9772 16.6305 53.2374 16.898C53.4977 17.1655 53.6277 17.5249 53.6277 17.9429C53.6277 18.5531 53.3919 19.0548 52.9202 19.4308C52.4485 19.8071 51.8142 19.9992 51.0334 19.9992C50.3502 19.9992 49.7809 19.8405 49.3661 19.5396C48.9514 19.2386 48.74 18.7786 48.74 18.1936C48.74 17.8258 48.8375 17.483 49.0328 17.1821C49.2279 16.8812 49.4638 16.6639 49.7727 16.5051H49.7729Z" fill="#4AA74B"/>
<path d="M5.85041 23L5.215 22.7955C5.215 22.7955 5.29961 19.674 4.13626 19.4547C3.37479 18.5939 4.24879 -17.2968 7.03237 19.3323C6.50423 19.5924 6.10013 20.0407 5.90455 20.5834C5.79973 21.3849 5.78159 22.1948 5.85041 23Z" fill="url(#paint0_linear_298_684)"/>
<path d="M6.19392 19.9845C7.88571 18.7481 9.18133 17.0709 9.93018 15.1479C10.679 13.2248 10.8504 11.135 10.4243 9.12114C9.18056 3.79418 6.23538 2.0429 5.9181 1.37425C5.64436 0.957895 5.4107 0.517941 5.22009 0.059967L5.45446 14.9024C5.45446 14.9024 4.96881 19.4383 6.19392 19.9845Z" fill="url(#paint1_linear_298_684)"/>
<path d="M4.89181 20.1817C4.89181 20.1817 -0.287002 16.7571 0.0125079 10.6991C0.0404475 8.87278 0.47176 7.07354 1.27731 5.42292C2.08287 3.7723 3.2439 2.30875 4.68199 1.13111C4.85004 0.992488 4.98356 0.818698 5.07251 0.622791C5.16146 0.426885 5.20353 0.213956 5.19555 0C5.51791 0.673571 5.46545 10.0567 5.49929 11.1542C5.63044 15.4231 5.25478 19.3759 4.89181 20.1817Z" fill="url(#paint2_linear_298_684)"/>
<defs>
<linearGradient id="paint0_linear_298_684" x1="1.57912" y1="11.7073" x2="8.83651" y2="14.2439" gradientUnits="userSpaceOnUse">
<stop offset="0.231" stop-color="#999875"/>
<stop offset="0.563" stop-color="#9B9977"/>
<stop offset="0.683" stop-color="#A09F7E"/>
<stop offset="0.768" stop-color="#A9A889"/>
<stop offset="0.837" stop-color="#B7B69A"/>
<stop offset="0.896" stop-color="#C9C7B0"/>
<stop offset="0.948" stop-color="#DEDDCB"/>
<stop offset="0.994" stop-color="#F8F6EB"/>
<stop offset="1" stop-color="#FBF9EF"/>
</linearGradient>
<linearGradient id="paint1_linear_298_684" x1="4.25722" y1="-0.0460909" x2="7.30488" y2="19.5558" gradientUnits="userSpaceOnUse">
<stop stop-color="#48A547"/>
<stop offset="1" stop-color="#3F9143"/>
</linearGradient>
<linearGradient id="paint2_linear_298_684" x1="-0.432973" y1="11.2988" x2="8.17845" y2="8.32828" gradientUnits="userSpaceOnUse">
<stop stop-color="#41A247"/>
<stop offset="0.352" stop-color="#4BA74B"/>
<stop offset="0.956" stop-color="#67B554"/>
<stop offset="1" stop-color="#69B655"/>
</linearGradient>
</defs>
</svg>
