<svg width="32" height="32" viewBox="0 0 32 32" fill="none" xmlns="http://www.w3.org/2000/svg">
<path d="M16 30C12.325 29.9617 8.81568 28.4653 6.24388 25.8399C3.67208 23.2145 2.24841 19.675 2.286 16C2.27895 12.3023 3.71976 8.7487 6.3 6.1C7.55996 4.80173 9.06772 3.7696 10.7339 3.06478C12.4001 2.35995 14.1909 1.99678 16 1.99678C17.8091 1.99678 19.5999 2.35995 21.2661 3.06478C22.9323 3.7696 24.44 4.80173 25.7 6.1C28.2802 8.7487 29.7211 12.3023 29.714 16C29.7516 19.675 28.3279 23.2145 25.7561 25.8399C23.1843 28.4653 19.675 29.9617 16 30Z" fill="#CE3F31"/>
<path d="M11.869 23.015H11.469C11.1163 23.0208 10.7643 22.9829 10.421 22.902C10.1092 22.8145 9.83786 22.6206 9.65401 22.354C9.43265 22.0523 9.29188 21.6992 9.24501 21.328C9.17881 20.7545 9.15009 20.1773 9.15901 19.6C9.16957 19.0365 9.14285 18.473 9.07901 17.913C9.03634 17.5723 8.89564 17.2513 8.67401 16.989C8.54088 16.8543 8.3804 16.7497 8.20342 16.6822C8.02643 16.6148 7.83704 16.5861 7.64801 16.598V15.4C7.83704 15.4119 8.02643 15.3832 8.20342 15.3158C8.3804 15.2483 8.54088 15.1437 8.67401 15.009C8.89564 14.7467 9.03634 14.4257 9.07901 14.085C9.14285 13.525 9.16957 12.9615 9.15901 12.398C9.14929 11.8198 9.17735 11.2416 9.24301 10.667C9.28988 10.2958 9.43065 9.94265 9.65201 9.641C9.83586 9.37439 10.1072 9.18052 10.419 9.093C10.7623 9.01212 11.1143 8.97417 11.467 8.98H11.867V10.12H11.641C11.1343 10.12 10.824 10.2533 10.71 10.52C10.5505 11.2316 10.4926 11.9622 10.538 12.69C10.5905 13.4844 10.4477 14.2795 10.122 15.006C9.84804 15.4905 9.39431 15.8476 8.85901 16C9.12424 16.073 9.37244 16.1977 9.58936 16.3669C9.80627 16.5361 9.98762 16.7465 10.123 16.986C10.4487 17.7118 10.5918 18.5062 10.54 19.3C10.4946 20.0278 10.5525 20.7584 10.712 21.47C10.8267 21.7367 11.137 21.87 11.643 21.87H11.869V23.015ZM13.469 19.874H14.504V16.42H15.963L17.933 19.874H19.117L17.04 16.308C17.5747 16.2093 18.0554 15.9197 18.3925 15.4932C18.7297 15.0666 18.9005 14.532 18.873 13.989C18.873 12.289 17.673 11.695 16.018 11.695H13.474L13.469 19.874ZM14.504 15.574V12.53H15.863C17.135 12.53 17.833 12.916 17.833 13.989C17.833 15.062 17.133 15.572 15.863 15.572L14.504 15.574ZM20.061 8.983H20.461C20.8137 8.97717 21.1657 9.01512 21.509 9.096C21.8208 9.18352 22.0922 9.37739 22.276 9.644C22.4974 9.94565 22.6381 10.2988 22.685 10.67C22.7507 11.2446 22.7787 11.8228 22.769 12.401C22.7584 12.9645 22.7852 13.528 22.849 14.088C22.8917 14.4287 23.0324 14.7497 23.254 15.012C23.3871 15.1467 23.5476 15.2513 23.7246 15.3188C23.9016 15.3862 24.091 15.4149 24.28 15.403V16.594C24.091 16.5821 23.9016 16.6108 23.7246 16.6782C23.5476 16.7457 23.3871 16.8503 23.254 16.985C23.0324 17.2473 22.8917 17.5683 22.849 17.909C22.7852 18.469 22.7584 19.0325 22.769 19.596C22.7787 20.1742 22.7507 20.7524 22.685 21.327C22.6381 21.6982 22.4974 22.0513 22.276 22.353C22.0922 22.6196 21.8208 22.8135 21.509 22.901C21.1657 22.9819 20.8137 23.0198 20.461 23.014H20.061V21.874H20.287C20.7937 21.874 21.104 21.7407 21.218 21.474C21.3813 20.7616 21.4426 20.0296 21.4 19.3C21.3475 18.5056 21.4904 17.7105 21.816 16.984C22.0887 16.5021 22.5415 16.1482 23.075 16C22.5393 15.8478 22.0852 15.4907 21.811 15.006C21.4854 14.2795 21.3425 13.4844 21.395 12.69C21.4405 11.9622 21.3825 11.2316 21.223 10.52C21.1083 10.2533 20.798 10.12 20.292 10.12H20.066L20.061 8.983Z" fill="white"/>
</svg>
